<svg width="14" height="24" viewBox="0 0 14 24" fill="none" xmlns="http://www.w3.org/2000/svg">
<path d="M12.6667 4H8.66667C7.93027 4 7.33333 4.59696 7.33333 5.33333V9.33333H12.6667C12.8183 9.32997 12.9621 9.40053 13.0523 9.52253C13.1424 9.64453 13.1677 9.80267 13.12 9.94667L12.1333 12.88C12.0424 13.1492 11.7908 13.3312 11.5067 13.3333H7.33333V23.3333C7.33333 23.7015 7.0348 24 6.66667 24H3.33333C2.96515 24 2.66667 23.7015 2.66667 23.3333V13.3333H0.666667C0.29848 13.3333 0 13.0348 0 12.6667V10C0 9.63187 0.29848 9.33333 0.666667 9.33333H2.66667V5.33333C2.66667 2.38781 5.05453 0 8 0H12.6667C13.0348 0 13.3333 0.29848 13.3333 0.666667V3.33333C13.3333 3.70152 13.0348 4 12.6667 4Z" fill="black"/>
</svg>
