<svg width="24" height="21" viewBox="0 0 24 21" fill="none" xmlns="http://www.w3.org/2000/svg">
<path d="M23.9649 2.95654C23.3457 3.78256 22.5971 4.50311 21.7482 5.09035C21.7482 5.30612 21.7482 5.5219 21.7482 5.74967C21.755 9.66814 20.1898 13.4255 17.4035 16.1793C14.6171 18.9332 10.8427 20.4532 6.92654 20.3985C4.66246 20.4061 2.42737 19.8892 0.396369 18.8881C0.286849 18.8403 0.216222 18.732 0.216635 18.6124V18.4805C0.216635 18.3084 0.356116 18.1689 0.528169 18.1689C2.7537 18.0955 4.89984 17.3239 6.66293 15.9632C4.64852 15.9225 2.83606 14.7292 2.00194 12.8943C1.95982 12.7941 1.97293 12.6791 2.03657 12.5909C2.1002 12.5028 2.20514 12.4543 2.31348 12.4628C2.9257 12.5243 3.54405 12.4673 4.13474 12.2949C1.911 11.8333 0.240089 9.9872 0.000955413 7.7276C-0.00753792 7.6192 0.0410353 7.51427 0.129142 7.45054C0.217235 7.38694 0.332129 7.37374 0.432315 7.416C1.02906 7.67934 1.67326 7.818 2.32546 7.82347C0.376928 6.54462 -0.464711 4.11207 0.276542 1.90163C0.353062 1.68684 0.536889 1.52816 0.760475 1.48392C0.984049 1.43967 1.21442 1.51638 1.3669 1.68586C3.99633 4.48434 7.60919 6.15195 11.4437 6.33706C11.3455 5.94514 11.2973 5.54235 11.2999 5.1383C11.3358 3.01963 12.6467 1.13228 14.619 0.359829C16.5911 -0.412611 18.8343 0.0827096 20.2985 1.61392C21.2963 1.4238 22.2611 1.0886 23.1621 0.618949C23.2281 0.577749 23.3118 0.577749 23.3778 0.618949C23.419 0.684976 23.419 0.768696 23.3778 0.834723C22.9414 1.83403 22.2042 2.67216 21.269 3.23226C22.0879 3.13728 22.8925 2.9441 23.6654 2.65686C23.7305 2.61256 23.8159 2.61256 23.881 2.65686C23.9355 2.68179 23.9763 2.72948 23.9925 2.78723C24.0086 2.84498 23.9985 2.90691 23.9649 2.95654Z" fill="black"/>
</svg>
